# xmcd
#
# Track frame offsets: 
#        150
#        20853
#        42273
#        61300
#        82223
#        103088
#        122495
#        141745
#        162755
#        183790
#
# Disc length: 2733 seconds
#
# Revision: 1
# Processed by: cddbd v1.5.2PL0 Copyright (c) Steve Scherf et al.
# Submitted via: ExactAudioCopy v0.99pb5
#
DISCID=8c0aab0a
DTITLE=Alberto Barros - El Titan De La Salsa
DYEAR=1998
DGENRE=Salsa
TTITLE0=Maldita Duda
TTITLE1=Vampiro
TTITLE2=Confesion
TTITLE3=Perdi El Control
TTITLE4=Tu Indiferencia
TTITLE5=Fingiendo
TTITLE6=Imaginacion
TTITLE7=Sola Quedaras
TTITLE8=Reencarnado
TTITLE9=Dosis Pasional
EXTD=YEAR: 1998
EXTT0=
EXTT1=
EXTT2=
EXTT3=
EXTT4=
EXTT5=
EXTT6=
EXTT7=
EXTT8=
EXTT9=
PLAYORDER=
